name Walk10.mot
datacolumns 19
datarows 22
range 3.53500000 3.64000000
endheader

                time	   L_ground_force_vx	   L_ground_force_vy	   L_ground_force_vz	   L_ground_force_px	   L_ground_force_py	   L_ground_force_pz	   R_ground_force_vx	   R_ground_force_vy	   R_ground_force_vz	   R_ground_force_px	   R_ground_force_py	   R_ground_force_pz	   L_ground_torque_x	   L_ground_torque_y	   L_ground_torque_z	   R_ground_torque_x	   R_ground_torque_y	   R_ground_torque_z	
          3.53500000	          0.03526292	          0.09424033	         -0.00550183	         -0.00012443	          0.00000000	         -0.00006816	        -20.87460395	        667.22559664	        -41.26793979	          0.43474688	          0.00000000	          0.09593064	          0.00000000	         -0.00007311	          0.00000000	          0.00000000	          3.11843969	          0.00000000	
          3.54000000	          0.02327074	          0.06635908	         -0.00534314	         -0.00010768	          0.00000000	         -0.00006032	        -19.75456259	        661.57096379	        -40.84581245	          0.43744930	          0.00000000	          0.09626229	          0.00000000	         -0.00012503	          0.00000000	          0.00000000	          2.88661744	          0.00000000	
          3.54500000	          0.01373996	          0.04323118	         -0.00481881	         -0.00008842	          0.00000000	         -0.00005052	        -18.71430749	        656.77117328	        -40.44401756	          0.44016946	          0.00000000	          0.09657829	          0.00000000	         -0.00014843	          0.00000000	          0.00000000	          2.67443072	          0.00000000	
          3.55000000	          0.00654139	          0.02498064	         -0.00410145	         -0.00006908	          0.00000000	         -0.00004024	        -17.73755245	        652.87588616	        -40.05428772	          0.44289137	          0.00000000	          0.09687677	          0.00000000	         -0.00015170	          0.00000000	          0.00000000	          2.47976277	          0.00000000	
          3.55500000	          0.00140774	          0.01130125	         -0.00331705	         -0.00005121	          0.00000000	         -0.00003046	        -16.80624446	        649.92000488	        -39.67328186	          0.44560361	          0.00000000	          0.09715746	          0.00000000	         -0.00014180	          0.00000000	          0.00000000	          2.29997455	          0.00000000	
          3.56000000	         -0.00199571	          0.00163514	         -0.00255168	         -0.00003570	          0.00000000	         -0.00002178	        -15.90171810	        647.91522783	        -39.30217215	          0.44829961	          0.00000000	          0.09742052	          0.00000000	         -0.00012424	          0.00000000	          0.00000000	          2.13221683	          0.00000000	
          3.56500000	         -0.00402043	         -0.00469288	         -0.00185907	         -0.00002293	          0.00000000	         -0.00001450	        -15.00604252	        646.84131240	        -38.94548170	          0.45097575	          0.00000000	          0.09766588	          0.00000000	         -0.00010315	          0.00000000	          0.00000000	          1.97320797	          0.00000000	
          3.57000000	         -0.00500088	         -0.00837976	         -0.00126787	         -0.00001293	          0.00000000	         -0.00000868	        -14.10261610	        646.64960499	        -38.60971202	          0.45363216	          0.00000000	          0.09789326	          0.00000000	         -0.00008147	          0.00000000	          0.00000000	          1.81957567	          0.00000000	
          3.57500000	         -0.00523412	         -0.01008135	         -0.00078848	         -0.00000549	          0.00000000	         -0.00000426	        -13.17770861	        647.26894744	        -38.30120322	          0.45627183	          0.00000000	          0.09810278	          0.00000000	         -0.00006112	          0.00000000	          0.00000000	          1.66829980	          0.00000000	
          3.58000000	         -0.00496973	         -0.01037523	         -0.00041870	         -0.00000029	          0.00000000	         -0.00000109	        -12.22257401	        648.61126889	        -38.02462512	          0.45889693	          0.00000000	          0.09829397	          0.00000000	         -0.00004324	          0.00000000	          0.00000000	          1.51674791	          0.00000000	
          3.58500000	         -0.00440714	         -0.00974314	         -0.00014845	          0.00000307	          0.00000000	          0.00000103	        -11.23428297	        650.58279040	        -37.78241004	          0.46150921	          0.00000000	          0.09846642	          0.00000000	         -0.00002835	          0.00000000	          0.00000000	          1.36282601	          0.00000000	
          3.59000000	         -0.00369781	         -0.00856722	          0.00003660	          0.00000498	          0.00000000	          0.00000231	        -10.21462965	        653.09177232	        -37.57605282	          0.46411098	          0.00000000	          0.09862026	          0.00000000	         -0.00001656	          0.00000000	          0.00000000	          1.20506967	          0.00000000	
          3.59500000	         -0.00295048	         -0.00713557	          0.00015237	          0.00000581	          0.00000000	          0.00000294	         -9.16859946	        656.05307987	        -37.40924891	          0.46670391	          0.00000000	          0.09875595	          0.00000000	         -0.00000769	          0.00000000	          0.00000000	          1.04262606	          0.00000000	
          3.60000000	         -0.00223788	         -0.00565314	          0.00021456	          0.00000589	          0.00000000	          0.00000312	         -8.10284930	        659.39103690	        -37.28995249	          0.46928899	          0.00000000	          0.09887441	          0.00000000	         -0.00000140	          0.00000000	          0.00000000	          0.87486410	          0.00000000	
          3.60500000	         -0.00160392	         -0.00425539	          0.00023748	          0.00000547	          0.00000000	          0.00000299	         -7.02356585	        663.04499911	        -37.23093548	          0.47186717	          0.00000000	          0.09897718	          0.00000000	          0.00000275	          0.00000000	          0.00000000	          0.70088517	          0.00000000	
          3.61000000	         -0.00107052	         -0.00302249	          0.00023339	          0.00000477	          0.00000000	          0.00000266	         -5.93597773	        666.97236281	        -37.24904012	          0.47443821	          0.00000000	          0.09906624	          0.00000000	          0.00000520	          0.00000000	          0.00000000	          0.51940701	          0.00000000	
          3.61500000	         -0.00064379	         -0.00199282	          0.00021231	          0.00000394	          0.00000000	          0.00000225	         -4.84420266	        671.14731529	        -37.36334789	          0.47700002	          0.00000000	          0.09914215	          0.00000000	          0.00000635	          0.00000000	          0.00000000	          0.32874719	          0.00000000	
          3.62000000	         -0.00031923	         -0.00117490	          0.00018200	          0.00000310	          0.00000000	          0.00000180	         -3.75079996	        675.56263387	        -37.59271949	          0.47954933	          0.00000000	          0.09920469	          0.00000000	          0.00000659	          0.00000000	          0.00000000	          0.12707591	          0.00000000	
          3.62500000	         -0.00008584	         -0.00055746	          0.00014817	          0.00000231	          0.00000000	          0.00000137	         -2.65654664	        680.23011805	        -37.95297709	          0.48208080	          0.00000000	          0.09925409	          0.00000000	          0.00000622	          0.00000000	          0.00000000	         -0.08790902	          0.00000000	
          3.63000000	          0.00007061	         -0.00011742	          0.00011476	          0.00000163	          0.00000000	          0.00000099	         -1.55936847	        685.17550359	        -38.45618395	          0.48458595	          0.00000000	          0.09929039	          0.00000000	          0.00000549	          0.00000000	          0.00000000	         -0.31904688	          0.00000000	
          3.63500000	          0.00016536	          0.00017405	          0.00008425	          0.00000106	          0.00000000	          0.00000067	         -0.45530419	        690.42862812	        -39.10853252	          0.48705624	          0.00000000	          0.09931307	          0.00000000	          0.00000459	          0.00000000	          0.00000000	         -0.56935774	          0.00000000	
          3.64000000	          0.00021304	          0.00034720	          0.00005803	          0.00000061	          0.00000000	          0.00000041	          0.66063965	        696.01534475	        -39.90757218	          0.48948362	          0.00000000	          0.09932029	          0.00000000	          0.00000365	          0.00000000	          0.00000000	         -0.84163990	          0.00000000	
